
<svg xmlns="http://www.w3.org/2000/svg" width="209.851" height="23.146" viewBox="0 0 209.851 23.146">
  <path id="Union_47" data-name="Union 47" d="M140.711,18.948a10.769,10.769,0,0,1-3.216-7.875A10.77,10.77,0,0,1,140.71,3.2a11.412,11.412,0,0,1,15.843,0,10.769,10.769,0,0,1,3.216,7.874,10.769,10.769,0,0,1-3.216,7.875,10.9,10.9,0,0,1-7.743,3.2h-.36A10.9,10.9,0,0,1,140.711,18.948Zm4.184-11.589a4.955,4.955,0,0,0-1.482,3.651v.127a5.05,5.05,0,0,0,5.156,5.125h.127a5.05,5.05,0,0,0,5.157-5.125V11.01A5.051,5.051,0,0,0,148.7,5.884h-.127l-.129,0A4.987,4.987,0,0,0,144.895,7.358Zm46.1,11.8a10.133,10.133,0,0,1-3.029-7.419V.692h5.917V11.819a4.374,4.374,0,0,0,4.463,4.444h.125a4.375,4.375,0,0,0,4.463-4.444V.692h5.917V11.739a10.273,10.273,0,0,1-10.28,10.406h-.331A10.225,10.225,0,0,1,191,19.158Zm-12.824,2.3L169,12.331v9.123h-5.918V.692H169V9.814l2.5-2.485L178.172.692H185.7L175.261,11.073,185.7,21.454Zm-86.218-3a10.1,10.1,0,0,1-3.017-7.382,10.1,10.1,0,0,1,3.016-7.381,10.214,10.214,0,0,1,7.455-3h10.412V21.452H99.409l-.193,0A10.222,10.222,0,0,1,91.954,18.455Zm4.184-10.6a4.288,4.288,0,0,0-1.283,3.159v.126a4.37,4.37,0,0,0,4.462,4.434H103.9V6.576H99.22A4.341,4.341,0,0,0,96.137,7.851Zm-16.6,13.6V9.9a3.948,3.948,0,0,0-4.028-4.014h-.124A3.948,3.948,0,0,0,71.357,9.9V21.454H65.44V9.9a3.948,3.948,0,0,0-4.028-4.014h-.124A3.948,3.948,0,0,0,57.26,9.9V21.454H51.344V9.973A10.073,10.073,0,0,1,68.4,2.814a10,10,0,0,1,17.055,7.16V21.454Zm-50.413-3a10.1,10.1,0,0,1-3.016-7.381,10.1,10.1,0,0,1,3.016-7.381,10.217,10.217,0,0,1,7.455-3H46.991V21.452H36.579l-.193,0A10.221,10.221,0,0,1,29.124,18.454Zm4.184-10.6a4.288,4.288,0,0,0-1.283,3.159v.126a4.288,4.288,0,0,0,1.283,3.159,4.337,4.337,0,0,0,3.178,1.276h4.587V6.576H36.39A4.341,4.341,0,0,0,33.308,7.851ZM8.876,21.454c0-.009,0-.018,0-.027V16.769A15.889,15.889,0,0,1,23.627.692h.043v5.9a9.993,9.993,0,0,0-8.877,10.091v4.769Zm112.432,0V6.574h-7.832V.692h21.581V6.574h-7.832v14.88ZM5.931,9.439A9.907,9.907,0,0,0,0,6.593V.692H.039A15.788,15.788,0,0,1,10.112,5.275c.122.121.237.246.354.37a17.662,17.662,0,0,0-2.963,5.8A10.092,10.092,0,0,0,5.931,9.439Z" transform="translate(0.5 0.5)" fill="#76a32d" stroke="rgba(0,0,0,0)" stroke-miterlimit="10" stroke-width="1"/>
</svg>
